<svg xmlns="http://www.w3.org/2000/svg" width="177" height="34"><path d="M 0.331 0.999 L 176.758 0.999 L 176.758 33.783 L 0.331 33.783 Z" fill="transparent"></path><path d="M 16.886 32.238 C 8.605 32.238 1.892 25.591 1.892 17.391 C 1.892 9.191 8.605 2.543 16.886 2.543 C 25.167 2.543 31.88 9.191 31.88 17.391 C 31.88 25.591 25.167 32.238 16.886 32.238 M 32 12.5 L 16.886 0.999 C 7.741 0.999 0.331 8.338 0.331 17.391 C 0.331 26.444 7.745 33.783 16.886 33.783 C 26.027 33.783 33.441 26.444 33.441 17.391 C 33.441 8.338 26.027 0.999 16.886 0.999" fill="hsl(0, 0%, 100%)"></path><path d="M 12.893 22.819 C 14.074 23.786 15.566 24.399 17.253 24.325 C 19.867 24.21 21.508 22.792 21.769 21.013 C 22.031 19.234 21.22 17.612 18.878 17.101 C 18.279 16.972 17.825 16.945 16.859 16.943 C 16.138 16.94 15.84 16.926 15.497 16.864 C 13.915 16.579 13.472 15.626 13.621 14.61 C 13.77 13.595 14.808 12.672 16.698 12.589 C 17.964 12.534 19.106 13.003 19.986 13.722 C 20.128 13.839 20.314 13.994 20.386 14.056 C 20.459 14.118 20.512 14.163 20.539 14.187 L 21.085 14.666 L 24.237 11.417 L 23.718 10.893 C 23.662 10.837 23.563 10.738 23.417 10.606 C 21.836 9.124 20.023 8.13 17.396 7.988 C 15.702 7.896 14.051 8.23 12.73 8.89 C 12.287 9.109 11.953 9.308 11.477 9.65 C 11 9.991 10.584 10.357 10.223 10.724 C 10.005 10.95 9.849 11.129 9.763 11.241 L 10.971 12.161 C 10.977 12.148 11.004 12.116 11.047 12.068 C 11.12 11.981 11.212 11.883 11.315 11.777 C 11.616 11.469 12.039 11.11 12.37 10.872 C 12.701 10.634 13.048 10.421 13.412 10.239 C 14.497 9.699 15.88 9.418 17.313 9.495 C 19.364 9.607 20.817 10.334 22.093 11.449 L 20.988 12.587 C 19.807 11.619 18.319 11.007 16.628 11.08 C 14.014 11.195 12.387 12.558 12.115 14.393 C 11.844 16.227 12.734 17.9 15.225 18.35 C 15.685 18.434 15.993 18.449 16.853 18.452 C 17.713 18.455 18.094 18.477 18.55 18.576 C 20.006 18.894 20.413 19.781 20.264 20.796 C 20.115 21.81 19.073 22.734 17.187 22.817 C 15.92 22.872 14.775 22.402 13.898 21.683 C 13.756 21.566 13.57 21.411 13.498 21.349 C 13.426 21.287 13.373 21.241 13.346 21.218 L 12.8 20.739 L 9.647 23.988 L 10.167 24.512 C 10.223 24.568 10.322 24.666 10.465 24.799 C 12.049 26.281 13.862 27.275 16.486 27.417 C 18.176 27.509 19.824 27.17 21.154 26.508 C 21.594 26.288 21.934 26.091 22.408 25.749 C 22.881 25.407 23.301 25.04 23.662 24.673 C 23.88 24.448 24.036 24.268 24.122 24.156 L 22.914 23.237 C 22.904 23.249 22.877 23.281 22.838 23.33 C 22.762 23.417 22.673 23.514 22.566 23.621 C 22.266 23.928 21.845 24.289 21.515 24.527 C 21.184 24.764 20.836 24.977 20.472 25.159 C 19.381 25.703 17.994 25.987 16.569 25.909 C 14.521 25.799 13.068 25.072 11.791 23.956 L 12.893 22.819" fill="hsl(0, 0%, 100%)"></path><path d="M 49.42 20.929 C 49.42 18.509 47.57 17.808 45.625 17.541 C 43.263 17.227 42.313 16.816 42.313 15.726 C 42.313 14.807 43.19 14.202 44.626 14.202 C 46.062 14.202 47.061 14.638 48.011 15.267 L 49.079 13.67 C 47.961 12.823 46.598 12.363 44.772 12.363 C 42.386 12.363 40.365 13.597 40.365 15.823 C 40.365 20.566 47.425 17.905 47.425 20.978 C 47.425 22.236 46.231 22.817 44.772 22.817 C 43.19 22.817 41.973 22.332 40.851 21.364 L 39.634 22.889 C 41.073 24.124 42.922 24.632 44.672 24.632 C 47.498 24.632 49.42 23.156 49.42 20.929 Z M 60.417 18.219 L 62.412 24.486 L 64.483 24.486 L 66.673 12.484 L 64.701 12.484 L 63.385 21.268 L 63.266 21.268 L 61.317 15.388 L 59.468 15.388 L 57.615 21.268 L 57.519 21.268 L 56.033 12.484 L 53.989 12.484 L 56.252 24.486 L 58.296 24.486 L 60.268 18.219 Z M 81.101 19.163 L 73.333 19.163 L 73.333 19.356 C 73.333 21.244 74.382 22.792 76.449 22.792 C 77.23 22.792 78.375 22.381 79.176 21.655 L 80.466 23.083 C 79.325 24.172 77.839 24.632 76.353 24.632 C 73.896 24.632 71.239 23.494 71.239 18.533 C 71.239 13.791 73.991 12.339 76.281 12.339 C 78.934 12.339 81.101 14.275 81.101 17.615 Z M 76.182 14.226 C 74.551 14.226 73.455 15.412 73.333 17.493 L 79.007 17.493 C 78.907 15.339 77.813 14.226 76.182 14.226 Z M 90.93 12.363 C 93.534 12.363 95.801 13.186 95.801 16.235 L 95.801 24.486 L 93.779 24.486 L 93.779 23.446 L 93.753 23.421 C 93.316 24.124 92.049 24.632 90.418 24.632 C 87.668 24.632 86.133 23.131 86.133 21.074 C 86.133 19.211 87.4 17.541 89.981 17.541 L 93.779 17.541 L 93.779 16.186 C 93.779 14.88 92.952 14.226 91.003 14.226 C 89.495 14.226 88.668 14.638 88.131 15.267 L 86.864 13.936 C 87.764 12.896 89.276 12.363 90.93 12.363 Z M 88.032 20.953 C 88.032 22.091 88.886 22.817 90.663 22.817 C 92.221 22.817 93.779 22.381 93.779 20.591 L 93.779 19.187 L 90.467 19.187 C 88.909 19.187 88.032 19.84 88.032 20.953 Z M 103.651 14.226 L 103.651 20.591 C 103.651 23.664 105.382 24.655 107.744 24.655 C 108.717 24.655 110.225 24.438 111.614 23.421 L 110.616 21.849 C 109.812 22.551 108.812 22.841 107.863 22.841 C 106.014 22.841 105.673 21.679 105.673 20.373 L 105.673 14.226 L 111.175 14.226 L 111.175 12.484 L 105.673 12.484 L 105.673 9.097 L 103.701 9.097 L 103.701 12.484 L 100.416 12.484 L 100.416 14.226 Z M 125.795 22.938 L 124.481 21.509 C 123.896 22.139 122.8 22.744 121.778 22.744 C 119.512 22.744 118.198 21.268 118.198 18.509 C 118.198 15.75 119.442 14.275 121.533 14.275 C 122.532 14.275 123.578 14.711 124.286 15.485 L 125.576 14.032 C 124.554 13.041 123.237 12.363 121.633 12.363 C 118.856 12.363 116.203 14.154 116.203 18.558 C 116.203 22.962 118.834 24.632 121.606 24.632 C 123.237 24.632 124.772 23.954 125.795 22.938 Z M 136.143 12.388 C 137.946 12.388 139.405 13.113 140.232 14.396 C 140.795 15.267 141.06 16.525 141.06 18.074 C 141.06 20.13 140.864 21.486 140.305 22.43 C 139.478 23.833 138.042 24.632 135.971 24.632 C 134.244 24.632 132.808 24.026 131.981 22.817 C 131.323 21.824 131.078 20.446 131.078 18.533 C 131.078 17.179 131.227 15.993 131.687 15.049 C 132.491 13.331 134.148 12.388 136.143 12.388 Z M 136.094 14.178 C 134.903 14.178 133.999 14.735 133.513 15.8 C 133.172 16.525 133.1 17.493 133.076 18.558 C 133.076 19.623 133.1 20.518 133.417 21.22 C 133.88 22.26 134.803 22.817 135.998 22.817 C 137.384 22.817 138.383 22.163 138.846 20.688 C 139.015 20.107 139.041 19.429 139.041 18.147 C 139.041 17.227 138.969 16.477 138.724 15.896 C 138.261 14.711 137.238 14.178 136.094 14.178 Z M 155.21 22.647 L 151.994 22.647 L 151.994 12.484 L 146.591 12.484 L 146.591 14.226 L 149.999 14.226 L 149.999 22.647 L 146.614 22.647 L 146.614 24.486 L 155.21 24.486 Z M 149.562 10.065 L 151.994 10.065 L 151.994 7.644 L 149.562 7.644 Z M 170.236 24.486 L 170.236 16.525 C 170.236 13.742 168.533 12.363 166.217 12.363 C 164.926 12.363 163.563 12.944 162.736 13.985 L 162.663 13.985 L 162.663 12.484 L 160.669 12.484 L 160.669 24.486 L 162.663 24.486 L 162.663 17.3 C 162.663 15.46 163.881 14.324 165.83 14.324 C 167.606 14.324 168.238 15.46 168.238 17.517 L 168.238 24.486 L 170.236 24.486 Z" fill="hsl(0, 0%, 100%)"></path></svg>