<svg xmlns="http://www.w3.org/2000/svg" width="12" height="16"><path d="M 10.577 12.76 C 10.577 12.76 9.847 13.736 8.588 14.385 C 7.759 14.812 6.651 15.084 5.436 15.016 C 3.194 14.89 1.84 13.645 1.359 13.181 C 1.227 13.053 1.155 12.978 1.155 12.978 L 2.725 11.306 C 2.725 11.306 2.899 11.463 3.145 11.672 C 3.655 12.104 4.648 12.723 5.945 12.664 C 7.907 12.575 8.649 11.264 8.738 10.637 C 8.827 10.009 8.761 8.693 7.044 8.306 C 6.178 8.111 5.345 8.273 4.577 8.13 C 2.736 7.786 2.638 6.508 2.743 5.768 C 2.848 5.029 3.574 3.829 5.535 3.741 C 6.832 3.682 7.825 4.301 8.335 4.733 C 8.582 4.941 8.756 5.099 8.756 5.099 L 10.325 3.427 C 10.325 3.427 10.254 3.352 10.121 3.224 C 9.641 2.76 8.287 1.515 6.045 1.389 C 4.83 1.321 3.722 1.587 2.893 2.014 C 1.633 2.663 0.903 3.639 0.903 3.639" fill="transparent" stroke-width="1.58" stroke="rgb(255, 255, 255)" stroke-miterlimit="10"></path></svg>