<svg xmlns="http://www.w3.org/2000/svg" xmlns:xlink="http://www.w3.org/1999/xlink" width="72" height="72"><g><defs><path d="M 36.092 0 C 16.19 0 0 16.149 0 36 C 0 55.851 16.19 72 36.092 72 C 55.994 72 72.185 55.851 72.185 36 C 72.185 16.149 55.994 0 36.092 0 Z" id="a1000z"></path><clipPath id="a1001z"><use xlink:href="#a1000z"></use></clipPath></defs><use xlink:href="#a1000z" fill="rgba(255, 255, 255, 0.05)" clip-path="url(#a1001z)" stroke-width="2.12" stroke="rgba(255, 255, 255, 0.06)" stroke-miterlimit="10"></use></g><path d="M 15.768 15.522 L 4.014 27.093 C 3.573 27.528 2.975 27.772 2.351 27.771 C 1.728 27.772 1.13 27.528 0.689 27.093 C -0.23 26.188 -0.23 24.726 0.689 23.821 L 10.782 13.886 L 0.689 3.951 C -0.23 3.046 -0.23 1.583 0.689 0.679 C 1.609 -0.226 3.094 -0.226 4.014 0.679 L 15.768 12.25 C 16.687 13.155 16.687 14.617 15.768 15.522 Z" transform="translate(25.121 22.114) rotate(180 8.229 13.886)" fill="rgba(255, 255, 255, 0.34)" opacity="0.79"></path></svg>