<svg xmlns="http://www.w3.org/2000/svg" xmlns:xlink="http://www.w3.org/1999/xlink" width="70.179" height="70"><g><defs><path d="M 35.09 0 C 15.741 0 0 15.7 0 35 C 0 54.3 15.741 70 35.09 70 C 54.439 70 70.179 54.3 70.179 35 C 70.179 15.7 54.439 0 35.09 0 Z" id="a1004z"></path><clipPath id="a1005z"><use xlink:href="#a1004z"></use></clipPath></defs><use xlink:href="#a1004z" fill="rgba(255, 255, 255, 0.05)" clip-path="url(#a1005z)" stroke-width="2.06" stroke="rgba(255, 255, 255, 0.06)" stroke-miterlimit="10"></use></g><path d="M 43.882 36.591 L 32.454 47.84 C 32.026 48.263 31.444 48.5 30.838 48.5 C 30.232 48.5 29.65 48.263 29.222 47.84 C 28.328 46.961 28.328 45.539 29.222 44.659 L 39.034 35 L 29.222 25.341 C 28.328 24.461 28.328 23.039 29.222 22.159 C 30.116 21.28 31.56 21.28 32.454 22.159 L 43.882 33.409 C 44.775 34.289 44.775 35.711 43.882 36.591 Z" fill="rgba(255, 255, 255, 0.34)" opacity="0.79"></path></svg>